{"glyphs":{":":{"x_min":0,"x_max":198,"ha":198,"o":"m 37 328 q 37 334 50 343 q 71 354 87 383 q 92 391 100 391 q 108 391 113 383 q 117 375 117 372 q 136 348 149 340 q 158 335 160 333 q 161 332 161 326 q 161 318 153 314 q 131 304 114 276 q 107 265 100 265 q 92 265 85 275 q 76 291 70 298 q 63 306 48 314 q 42 317 40 320 q 37 322 37 328 z m 38 44 q 38 51 51 59 q 72 70 88 99 q 93 107 101 107 q 109 107 114 99 q 118 91 118 88 q 137 63 150 56 q 159 52 160 50 q 162 47 162 42 q 162 35 154 30 q 132 20 115 -8 q 108 -19 101 -19 q 93 -19 86 -9 q 77 7 71 15 q 64 22 49 30 q 42 35 40 37 q 38 39 38 44 z"},"$":{"x_min":0,"x_max":490,"ha":490,"o":"m 233 672 l 257 672 l 257 626 q 357 626 418 562 q 383 527 373 493 l 355 495 q 357 542 326 571 q 296 600 257 603 l 256 368 q 322 330 355 307 q 388 284 411 250 q 435 216 435 172 q 435 135 416 96 q 396 58 354 30 q 312 3 253 0 l 254 -65 q 254 -75 248 -75 q 229 -75 230 -65 l 230 0 q 187 3 142 27 q 97 50 40 127 l 93 203 l 108 192 q 103 181 103 165 q 103 153 113 122 q 124 91 152 60 q 181 29 230 23 l 231 299 q 212 310 180 328 q 147 347 124 368 q 100 389 85 417 q 71 444 71 478 q 71 511 90 544 q 109 577 146 600 q 184 623 232 626 z m 232 381 l 233 604 q 178 601 152 574 q 126 547 126 510 q 126 467 155 439 q 183 411 232 381 z m 255 286 l 254 20 q 310 25 340 49 q 370 72 380 99 q 390 125 390 142 q 390 182 357 217 q 324 252 255 286 z"},"?":{"x_min":0,"x_max":281,"ha":281,"o":"m 51 587 l 65 588 q 73 558 82 551 q 92 544 117 541 q 164 535 206 498 q 248 461 248 389 q 248 339 228 296 q 208 253 168 230 q 146 217 141 209 q 135 201 132 170 q 131 157 130 155 q 128 152 122 152 q 112 152 112 165 l 117 251 q 118 266 125 270 q 132 274 163 281 q 190 286 203 297 q 215 309 218 324 q 220 340 220 371 q 220 403 208 425 q 196 447 165 461 q 134 475 84 480 q 63 482 53 486 q 42 490 42 502 q 50 538 51 546 q 51 549 51 563 q 51 577 51 587 z m 55 46 q 55 53 68 61 q 89 72 105 101 q 110 109 118 109 q 126 109 131 101 q 135 94 135 90 q 154 65 167 58 q 176 54 177 52 q 179 49 179 44 q 179 37 171 32 q 160 27 152 20 q 144 13 132 -6 q 126 -17 118 -17 q 110 -17 103 -7 q 94 9 86 17 q 79 25 66 32 q 60 36 58 38 q 55 41 55 46 z"},"<":{"x_min":0,"x_max":667,"ha":667,"o":"m 613 135 l 613 85 l 55 322 l 55 363 l 613 599 l 613 549 l 115 343 z"},"'":{"x_min":0,"x_max":188,"ha":188,"o":"m 103 340 l 82 340 l 56 484 q 45 541 45 565 q 45 625 92 625 q 106 625 118 618 q 129 612 136 600 q 143 588 143 573 q 143 549 133 500 z"},"=":{"x_min":0,"x_max":667,"ha":667,"o":"m 54 442 l 54 488 l 614 488 l 614 442 z m 54 200 l 54 246 l 614 246 l 614 200 z"},"a":{"x_min":0,"x_max":375,"ha":375,"o":"m 120 288 l 60 261 q 56 277 56 284 q 56 309 87 330 q 117 352 156 365 q 194 378 209 378 q 222 378 242 366 q 261 354 273 343 q 283 333 289 323 q 294 314 299 293 q 303 273 303 241 q 303 232 301 176 l 299 139 q 297 113 297 97 q 297 77 302 54 q 307 31 324 31 q 343 31 375 45 l 375 25 l 303 -4 q 282 -11 279 -11 q 268 -11 257 4 q 246 19 239 39 q 148 -11 100 -11 q 70 -11 55 6 q 40 23 40 58 q 40 91 48 107 q 56 124 74 133 q 111 151 152 160 q 193 169 238 176 l 240 236 l 240 252 q 240 293 217 318 q 193 342 161 342 q 146 342 131 333 q 115 325 115 309 q 115 301 120 288 z m 236 57 q 234 73 239 149 q 174 153 135 133 q 96 113 96 83 q 96 61 108 42 q 120 22 141 22 q 165 22 236 57 z"},"L":{"x_min":0,"x_max":563,"ha":563,"o":"m 47 611 l 47 628 q 108 627 127 627 q 146 626 159 626 q 241 626 267 628 l 266 609 q 232 606 216 601 q 199 596 192 579 q 188 568 186 525 q 184 482 182 415 q 180 339 179 278 q 178 216 178 156 q 178 101 181 74 q 184 48 191 41 q 199 35 219 32 q 238 29 301 29 q 370 29 417 40 q 463 51 487 64 q 518 83 530 129 l 546 127 q 543 107 533 67 q 522 27 509 -6 q 467 -1 442 -1 q 427 0 414 0 q 401 0 384 0 l 41 0 l 40 15 q 69 21 82 28 q 95 35 102 52 q 108 68 110 102 q 112 136 112 199 l 113 414 q 114 487 113 524 q 112 562 106 580 q 100 599 87 604 q 75 610 47 611 z"},"3":{"x_min":0,"x_max":490,"ha":490,"o":"m 100 535 l 86 552 q 171 625 249 625 q 286 625 317 611 q 347 597 364 572 q 381 546 381 512 q 381 440 303 368 q 357 334 391 296 q 426 257 426 195 q 426 148 399 101 q 373 54 323 23 q 273 -7 207 -7 q 162 -7 116 13 q 70 33 37 78 l 85 159 l 104 148 q 92 129 92 120 q 92 105 115 81 q 139 57 174 38 q 208 20 242 20 q 275 20 305 38 q 335 56 353 87 q 370 118 370 154 q 370 193 353 223 q 335 252 311 272 q 287 292 244 320 l 213 297 l 200 315 q 255 358 286 395 q 318 432 318 478 q 318 521 287 551 q 256 581 211 581 q 160 581 100 535 z"},";":{"x_min":0,"x_max":208,"ha":208,"o":"m 104 101 l 116 101 q 125 82 126 79 q 150 36 150 5 q 150 -41 123 -73 q 97 -105 57 -130 l 45 -114 q 68 -98 85 -78 q 102 -58 102 -32 q 102 -8 88 0 q 75 9 53 12 q 39 16 39 25 q 39 29 46 36 q 64 47 80 63 q 96 78 104 101 z m 56 326 q 56 333 69 341 q 90 353 106 381 q 111 389 119 389 q 127 389 132 381 q 136 374 136 370 q 155 346 168 338 q 177 333 179 332 q 180 330 180 324 q 180 316 172 312 q 161 307 153 300 q 145 292 133 274 q 126 263 119 263 q 111 263 104 273 q 95 289 87 297 q 80 305 67 312 q 61 315 59 318 q 56 320 56 326 z"},"J":{"x_min":0,"x_max":313,"ha":313,"o":"m 17 612 l 14 631 q 25 631 87 628 q 149 625 160 625 q 193 625 290 631 l 291 612 q 246 609 228 601 q 210 592 205 568 q 199 544 198 485 q 197 458 197 417 q 196 377 196 342 l 196 267 q 196 248 197 147 q 198 45 198 -6 q 198 -42 196 -71 q 153 -131 107 -179 q 61 -227 14 -227 q 3 -227 -7 -220 q -18 -212 -18 -206 q -18 -197 7 -183 q 31 -168 41 -168 q 44 -168 69 -177 q 130 -177 130 87 l 130 281 q 130 403 127 472 q 125 541 118 564 q 112 587 99 597 q 85 607 61 610 q 36 613 17 612 z"},"V":{"x_min":0,"x_max":719,"ha":719,"o":"m 10 617 l 12 635 l 52 634 l 132 631 q 143 631 152 632 q 162 632 180 632 l 229 631 l 230 615 q 187 612 177 609 q 167 606 167 597 q 167 584 187 533 q 208 482 237 416 q 267 350 280 321 l 348 174 l 362 146 q 375 118 382 104 q 398 133 421 180 q 444 227 465 270 q 485 313 487 318 l 551 458 q 565 489 579 525 q 593 562 593 577 q 593 609 539 614 l 542 634 q 598 629 657 629 q 673 629 685 630 q 697 630 716 630 l 716 616 q 684 605 667 593 q 651 581 635 553 q 619 526 580 447 l 470 228 q 439 167 408 95 q 378 23 373 -12 l 358 -14 q 347 18 333 47 l 300 120 q 285 159 259 213 l 177 386 q 86 575 68 595 q 57 608 44 612 q 31 616 10 617 z"},"\"":{"x_min":0,"x_max":438,"ha":438,"o":"m 132 340 l 111 340 l 85 484 q 80 511 77 530 q 74 548 74 565 q 74 625 121 625 q 136 625 147 618 q 159 611 165 600 q 172 588 172 573 q 172 553 162 500 z m 325 340 l 304 340 l 278 484 q 273 511 270 530 q 267 548 267 565 q 267 625 314 625 q 329 625 340 618 q 352 611 359 600 q 365 588 365 573 q 365 555 355 500 z"},"7":{"x_min":0,"x_max":490,"ha":490,"o":"m 58 500 l 38 501 q 77 585 86 612 q 95 636 96 639 q 98 642 102 642 q 107 642 109 636 q 115 625 123 622 q 131 619 151 619 q 159 619 199 620 q 238 621 244 621 q 271 621 296 621 q 321 621 350 620 q 426 620 465 628 l 471 617 q 428 548 389 473 q 350 398 314 318 q 278 239 248 165 q 218 90 180 -11 q 171 -9 165 -9 q 161 -9 149 -13 q 136 -17 135 -18 q 133 -19 128 -19 q 118 -19 118 -10 q 118 -4 137 31 q 156 67 157 71 q 175 104 205 165 q 236 226 261 279 q 287 332 297 354 l 371 512 q 372 515 377 526 q 383 537 390 554 q 375 556 344 558 q 313 560 282 560 q 251 561 227 561 q 176 561 146 558 q 115 554 83 546 z"},"S":{"x_min":0,"x_max":469,"ha":469,"o":"m 62 -2 l 42 -1 q 43 67 15 162 q 27 166 31 166 q 42 129 49 113 q 56 97 66 84 q 77 72 95 62 q 127 45 168 32 q 210 19 258 19 q 299 19 341 40 q 383 60 383 130 q 383 165 371 190 q 358 216 339 231 q 319 247 293 259 q 267 271 225 287 q 167 308 130 330 q 93 352 71 384 q 49 417 49 463 q 49 537 103 586 q 157 635 258 635 q 309 635 359 624 q 379 620 384 620 q 398 620 413 630 l 417 632 q 421 632 427 630 q 425 619 424 608 q 423 597 422 583 q 420 570 420 563 q 419 556 419 553 q 425 494 425 489 l 410 488 q 406 538 377 566 q 349 595 312 605 q 276 615 243 615 q 162 615 136 573 q 110 531 110 493 q 110 454 129 427 q 149 401 178 386 q 207 372 260 351 q 319 328 355 308 q 392 288 420 251 q 448 213 448 158 q 448 111 424 74 q 399 36 351 14 q 302 -8 231 -8 q 162 -8 88 12 q 75 15 72 15 q 59 15 62 -2 z"},"}":{"x_min":0,"x_max":510,"ha":510,"o":"m 391 186 l 391 168 q 343 162 311 133 q 279 104 279 66 q 279 57 289 -10 q 299 -76 299 -89 q 299 -135 276 -176 q 253 -217 211 -244 q 170 -271 119 -277 l 119 -260 q 174 -248 203 -217 q 231 -186 231 -148 q 231 -137 220 -69 q 210 0 210 9 q 210 45 227 78 q 243 110 275 136 q 307 161 351 176 l 351 178 q 307 193 275 218 q 243 244 227 276 q 210 309 210 345 q 210 358 220 423 q 231 496 231 502 q 231 540 203 571 q 174 602 119 614 l 119 631 q 170 625 211 598 q 253 571 276 530 q 299 489 299 443 q 299 429 289 365 q 279 301 279 288 q 279 250 311 221 q 343 192 391 186 z"},"Z":{"x_min":0,"x_max":615,"ha":615,"o":"m 410 0 l 158 0 q 81 0 4 -6 q 4 -3 5 0 q 5 2 5 6 q 68 71 133 145 q 198 219 249 283 q 301 348 364 434 q 427 519 478 594 q 442 596 395 597 q 347 598 291 598 q 184 598 136 592 q 88 586 65 567 q 41 549 21 506 l 7 513 q 13 532 18 551 q 22 569 25 578 q 27 588 28 592 l 38 639 q 40 645 41 648 q 42 651 46 651 q 49 651 53 646 q 62 630 88 628 q 103 625 120 625 q 137 624 158 624 q 179 623 229 623 q 412 623 593 628 l 593 619 q 557 572 536 545 q 515 518 484 480 q 454 442 437 421 q 419 399 415 394 l 306 256 q 299 248 268 207 q 255 192 239 172 q 223 152 204 128 q 185 104 167 81 q 148 57 127 32 q 173 23 256 23 q 374 23 427 30 q 479 37 525 55 q 557 68 572 84 q 587 100 599 133 l 614 124 q 605 104 584 52 q 563 0 556 -17 q 550 -17 547 -16 q 546 -7 524 -4 q 503 0 410 0 z"},"x":{"x_min":0,"x_max":406,"ha":406,"o":"m 16 0 l 17 18 q 36 21 46 27 q 55 32 70 51 q 82 64 84 68 q 87 71 113 100 l 181 177 q 157 226 130 271 q 104 316 87 329 q 79 335 64 338 q 49 341 26 344 l 28 362 l 69 361 q 77 361 88 361 q 99 360 113 360 q 162 360 196 365 l 200 346 q 186 345 178 342 q 170 339 170 329 q 170 313 222 223 q 242 243 267 274 q 293 306 293 323 q 293 341 245 347 l 251 363 q 266 362 291 360 q 304 359 330 359 q 356 359 388 363 l 388 347 q 364 346 333 313 q 301 281 239 203 l 235 198 l 288 99 q 318 45 336 31 q 355 18 388 15 l 388 -2 q 366 1 300 1 q 239 1 221 -2 l 218 17 q 246 19 251 20 q 257 21 257 27 q 236 71 218 108 l 194 154 q 154 114 131 81 q 108 47 108 37 q 108 29 117 25 q 127 21 153 18 l 155 0 q 131 2 115 3 q 98 3 83 3 q 47 3 16 0 z"},")":{"x_min":0,"x_max":333,"ha":333,"o":"m 27 647 l 42 672 q 173 590 237 473 q 302 355 302 199 q 302 109 281 34 q 261 -41 225 -100 q 189 -159 143 -203 q 97 -247 40 -279 l 28 -254 q 83 -221 138 -166 q 193 -111 233 -20 q 273 72 273 193 q 273 286 251 358 q 230 431 194 485 q 159 540 116 579 q 74 618 27 647 z"},"&":{"x_min":0,"x_max":635,"ha":635,"o":"m 587 438 l 585 422 q 562 421 552 415 q 541 408 530 390 q 519 371 498 324 q 474 270 459 239 q 445 207 434 185 q 421 163 419 157 q 432 123 449 94 q 465 65 484 47 q 503 30 521 30 q 554 30 586 88 q 597 106 599 109 q 601 112 606 112 q 609 112 613 109 q 616 106 616 102 q 609 76 580 36 q 552 -4 495 -4 q 467 -4 445 13 q 423 29 407 52 q 392 75 380 99 q 352 58 321 35 q 291 12 258 2 q 226 -7 191 -7 q 138 -7 103 18 q 68 43 52 82 q 35 121 35 159 q 35 231 76 273 q 116 315 164 341 q 125 364 107 396 q 90 427 90 453 q 90 495 121 524 q 151 554 186 569 q 221 584 228 584 q 234 584 246 578 q 257 572 272 562 q 288 552 294 547 q 311 534 321 512 q 331 490 331 467 q 331 445 326 435 q 321 425 295 399 q 289 391 277 379 q 265 367 255 356 q 292 337 313 322 q 334 306 356 275 q 377 245 404 189 q 406 194 419 219 q 433 244 434 248 q 451 279 469 331 q 488 383 491 414 q 485 423 477 430 q 469 437 448 446 l 455 462 q 481 453 520 447 q 559 440 587 438 z m 228 371 q 253 384 269 404 q 285 424 285 449 q 285 469 271 491 q 257 512 236 526 q 214 540 191 540 q 165 540 142 516 q 120 491 120 472 q 120 447 149 417 q 178 388 228 371 z m 188 326 q 135 290 115 263 q 94 236 94 195 q 94 127 122 92 q 150 57 181 48 q 212 39 232 39 q 272 39 306 61 q 340 82 367 125 l 363 134 q 346 174 330 204 q 314 234 295 257 q 276 279 251 296 q 226 313 188 326 z"},"_":{"x_min":0,"x_max":500,"ha":500,"o":"m -6 -75 l 506 -75 l 506 -125 l -6 -125 z"},"v":{"x_min":0,"x_max":396,"ha":396,"o":"m 201 -23 l 186 -23 q 173 33 145 110 q 118 187 89 254 q 61 321 55 326 q 49 331 38 337 q 27 342 20 346 l 20 358 q 36 357 72 357 q 125 357 197 361 l 195 344 q 160 340 151 336 q 142 333 142 324 q 142 301 171 213 q 201 124 218 86 q 250 138 279 208 q 307 278 307 307 q 307 330 293 336 q 279 343 255 344 l 257 360 l 291 361 q 317 358 337 358 q 368 358 393 364 l 393 349 q 371 340 355 316 q 339 292 332 273 q 331 271 324 254 q 317 238 314 233 l 226 39 z"},"O":{"x_min":0,"x_max":740,"ha":740,"o":"m 41 315 q 41 404 88 479 q 135 554 213 598 q 292 642 379 642 q 438 642 497 619 q 555 595 601 553 q 646 511 674 450 q 701 389 701 317 q 701 229 658 154 q 614 78 537 33 q 459 -12 362 -12 q 287 -12 227 17 q 167 46 125 96 q 83 146 62 203 q 41 260 41 315 z m 114 352 q 114 267 154 190 q 194 114 261 69 q 329 23 404 23 q 459 23 510 51 q 562 78 594 136 q 627 193 627 278 q 627 345 605 406 q 583 466 545 512 q 506 558 455 583 q 404 608 348 608 q 287 608 233 577 q 179 547 146 488 q 114 430 114 352 z"},"(":{"x_min":0,"x_max":333,"ha":333,"o":"m 308 -254 l 293 -279 q 227 -237 179 -188 q 131 -139 98 -79 q 65 -20 49 48 q 33 116 33 194 q 33 281 54 358 q 74 435 110 493 q 146 552 193 596 q 239 640 295 672 l 307 647 q 251 614 197 560 q 142 505 102 413 q 62 321 62 200 q 62 111 84 36 q 105 -39 142 -93 q 178 -147 219 -185 q 260 -222 308 -254 z"},"C":{"x_min":0,"x_max":625,"ha":625,"o":"m 588 98 q 585 92 567 26 q 514 10 471 2 q 428 -7 378 -7 q 317 -7 257 15 q 196 36 148 78 q 100 121 71 181 q 43 242 43 320 q 43 426 95 500 q 148 573 229 607 q 311 642 397 642 q 465 642 528 618 q 557 609 572 609 q 579 610 582 611 q 585 611 590 612 q 593 612 596 608 l 589 580 q 579 543 571 487 q 562 488 559 493 q 556 498 556 508 q 555 539 548 550 q 535 571 482 594 q 429 616 376 616 q 306 616 249 581 q 192 546 159 479 q 126 412 126 321 q 126 237 155 177 q 184 117 228 82 q 271 46 317 31 q 362 15 395 15 q 448 15 482 32 q 517 50 537 74 q 557 98 575 132 q 583 146 588 146 q 597 146 597 137 q 597 131 588 98 z"},"W":{"x_min":0,"x_max":979,"ha":979,"o":"m 15 608 l 14 628 l 60 626 q 125 624 143 624 q 199 624 228 626 l 263 626 l 265 607 q 236 605 211 595 q 185 585 185 568 q 185 549 222 443 q 260 336 302 225 q 345 114 348 109 l 368 161 q 371 167 384 198 q 397 229 404 246 l 489 436 q 452 522 441 547 q 430 571 424 578 q 406 603 369 605 l 367 625 q 400 623 435 623 q 524 623 595 628 l 596 611 q 562 607 545 600 q 528 593 525 586 q 521 579 521 569 q 521 552 552 459 q 583 367 626 252 q 668 138 682 107 q 718 196 754 294 q 789 392 810 459 q 830 527 830 548 q 830 587 803 598 q 775 608 736 610 l 732 626 l 784 626 q 850 625 930 627 l 969 628 l 968 611 q 938 608 918 595 q 898 582 881 550 q 864 519 842 459 l 745 190 q 721 124 716 113 q 706 88 700 70 q 693 51 685 27 q 677 2 666 -30 l 651 -29 q 637 12 624 55 q 610 98 600 129 q 589 160 584 174 l 502 399 q 495 384 484 361 q 474 337 468 326 l 416 209 q 396 166 383 129 q 370 92 355 48 q 340 3 329 -30 l 316 -30 l 259 135 q 247 172 228 228 q 209 283 184 354 q 159 426 137 480 q 116 535 104 557 q 86 590 65 599 q 44 608 15 608 z"},"A":{"x_min":0,"x_max":625,"ha":625,"o":"m 422 -2 l 422 14 q 444 18 458 24 q 471 31 471 46 q 471 60 462 87 q 454 114 449 124 l 413 222 q 385 226 321 226 l 282 226 q 224 228 180 220 l 144 130 q 120 73 120 59 q 120 42 135 31 q 151 19 198 12 l 198 -4 q 141 3 101 3 q 60 3 12 -1 l 12 13 q 42 21 57 36 q 69 46 88 85 q 107 123 127 168 q 147 213 156 239 l 234 426 q 249 459 264 496 q 279 533 293 570 q 307 607 313 630 q 313 636 316 639 l 332 640 q 347 586 365 536 l 468 261 q 507 158 528 109 q 548 60 563 39 q 576 21 615 17 l 615 0 q 575 4 538 4 q 509 4 484 2 q 458 1 444 0 q 429 -1 422 -2 z m 267 438 l 212 296 q 201 266 197 258 q 234 252 282 252 l 327 253 q 368 253 400 255 q 383 305 378 314 l 343 404 q 337 418 321 457 q 304 496 297 510 q 288 489 281 472 q 274 456 267 438 z"},"f":{"x_min":0,"x_max":302,"ha":302,"o":"m 34 338 l 34 367 l 99 368 q 100 453 114 503 q 128 553 155 584 q 176 609 208 630 q 241 650 272 662 q 304 673 325 673 q 354 673 381 663 q 409 653 409 639 q 409 631 398 616 q 388 600 378 600 l 339 614 q 298 629 274 629 q 235 629 212 606 q 188 584 176 527 q 164 470 162 368 l 295 368 l 295 337 l 162 336 l 160 197 q 160 113 162 73 q 163 34 170 27 q 174 23 185 22 q 195 21 244 20 l 244 1 q 215 2 146 2 q 77 3 31 3 l 31 19 q 57 21 70 26 q 83 31 89 44 q 95 57 96 81 q 98 105 98 149 l 99 312 q 99 330 95 332 q 86 338 34 338 z"},"Q":{"x_min":0,"x_max":740,"ha":740,"o":"m 795 -99 l 801 -111 q 771 -125 737 -130 q 702 -135 679 -135 q 524 -135 379 -12 q 330 -11 302 -7 q 274 -2 235 14 q 171 42 128 92 q 84 142 63 201 q 41 260 41 317 q 41 401 87 477 q 133 553 211 597 q 289 642 379 642 q 438 642 496 619 q 554 596 600 553 q 646 511 674 450 q 701 390 701 317 q 701 249 674 187 q 647 125 597 77 q 573 54 549 40 q 525 26 485 9 q 646 -104 754 -104 q 770 -104 795 -99 z m 114 352 q 114 287 137 228 q 160 169 201 122 q 242 75 294 49 q 347 23 404 23 q 459 23 510 51 q 561 79 594 136 q 627 193 627 278 q 627 347 605 407 q 583 467 544 512 q 506 557 455 583 q 404 608 348 608 q 287 608 233 577 q 179 547 146 488 q 114 430 114 352 z"},"w":{"x_min":0,"x_max":615,"ha":615,"o":"m 184 -18 l 168 -19 q 160 47 102 227 q 85 276 75 297 q 65 319 54 327 q 44 336 23 344 l 23 356 q 36 358 60 358 q 119 358 141 359 q 163 360 189 363 l 186 344 q 161 341 152 336 q 143 332 143 320 q 143 294 161 237 q 178 179 203 109 l 209 95 q 213 106 214 109 q 222 123 239 156 q 256 189 273 227 q 290 264 298 290 q 286 321 275 330 q 264 338 237 342 l 239 358 l 287 357 q 295 357 379 361 l 410 362 l 409 346 q 360 343 360 320 q 360 312 376 256 q 392 200 427 89 q 450 133 470 174 q 490 215 507 256 q 523 296 523 315 q 523 330 517 337 q 512 344 505 345 q 499 347 483 348 l 484 362 q 512 360 545 360 q 574 360 612 362 q 612 353 611 349 q 594 345 579 323 q 563 302 517 213 l 454 88 q 448 80 440 61 q 431 42 421 16 q 410 -11 408 -19 l 393 -19 q 392 -10 387 7 q 383 23 379 37 l 339 172 q 337 176 329 202 q 320 229 313 250 l 215 47 q 188 -15 184 -18 z"},"-":{"x_min":0,"x_max":313,"ha":313,"o":"m 35 161 l 35 214 l 277 214 l 277 161 z"},"E":{"x_min":0,"x_max":563,"ha":563,"o":"m 525 143 l 540 143 q 532 92 523 59 q 514 25 499 -5 q 483 -3 455 -3 q 427 -2 377 -2 q 347 -2 312 -1 q 277 0 282 0 q 250 0 208 -1 q 166 -1 106 -3 q 47 -5 19 -7 l 20 10 q 35 13 51 17 q 66 21 72 26 q 78 31 80 38 q 83 45 85 64 q 88 83 91 131 q 93 180 95 240 q 97 301 96 316 l 93 471 q 91 543 87 569 q 83 594 71 603 q 60 611 27 617 q 27 625 28 630 l 341 630 q 394 630 500 634 q 498 592 491 550 q 485 508 475 508 q 463 508 463 515 q 463 518 465 534 q 467 549 467 552 q 467 587 424 597 q 381 607 322 607 q 250 607 172 597 q 163 516 163 461 q 163 425 164 378 q 164 331 164 334 q 176 333 236 333 q 339 333 378 337 q 400 339 407 343 q 415 346 422 360 q 429 374 437 403 l 451 402 q 451 351 451 311 q 451 271 450 219 l 433 219 q 432 264 420 282 q 408 299 374 304 q 339 309 252 309 q 196 309 164 304 l 162 235 q 159 108 171 39 q 180 37 192 34 q 204 31 215 29 q 226 27 247 26 q 267 24 298 24 q 375 24 418 35 q 462 46 485 71 q 508 96 525 143 z"},"s":{"x_min":0,"x_max":323,"ha":323,"o":"m 27 110 l 44 109 q 44 100 60 79 q 76 58 103 41 q 129 24 161 24 q 184 24 207 34 q 230 43 230 76 q 230 110 206 131 q 182 152 152 167 l 115 184 q 83 201 64 219 q 45 237 45 266 q 45 289 61 313 q 77 338 108 354 q 138 370 177 370 q 200 370 255 363 l 271 280 l 254 280 q 250 297 234 312 q 218 328 197 338 q 175 349 160 349 q 134 349 118 333 q 102 317 102 292 q 102 272 114 260 q 125 248 158 232 l 188 218 q 229 199 257 173 q 286 147 286 102 q 286 85 279 66 q 272 46 258 38 q 217 12 191 5 q 165 -3 137 -3 q 127 -3 109 0 q 91 2 84 3 q 77 5 59 10 q 41 16 35 17 q 39 37 39 45 q 39 57 35 78 q 31 100 27 110 z"},">":{"x_min":0,"x_max":667,"ha":667,"o":"m 54 549 l 54 599 l 612 362 l 612 321 l 54 85 l 54 135 l 552 341 z"},"l":{"x_min":0,"x_max":240,"ha":240,"o":"m 13 -2 l 13 13 q 50 20 65 35 q 80 51 84 83 q 86 100 89 159 q 92 219 95 296 q 97 374 97 435 q 97 564 84 582 q 76 594 51 594 q 45 594 42 594 q 38 593 35 593 q 32 592 29 592 l 29 607 q 122 646 160 673 l 175 673 q 160 615 156 464 l 152 229 q 152 64 159 42 q 164 29 188 23 q 213 16 233 14 l 233 -4 q 137 3 104 3 q 60 3 13 -2 z"},"8":{"x_min":0,"x_max":490,"ha":490,"o":"m 204 325 q 137 363 108 401 q 80 439 80 485 q 80 523 99 556 q 119 590 156 610 q 193 630 242 630 q 292 630 329 611 q 367 591 387 560 q 407 529 407 496 q 407 459 387 430 q 368 401 344 384 q 320 367 297 355 q 340 332 370 310 q 400 288 423 251 q 446 215 446 164 q 446 119 420 80 q 395 41 349 17 q 303 -7 242 -7 q 188 -7 143 14 q 97 35 71 71 q 45 106 45 147 q 45 254 204 325 z m 278 365 q 345 419 345 480 q 345 510 332 539 q 319 568 292 588 q 266 608 228 608 q 198 608 173 596 q 148 583 134 562 q 119 542 119 516 q 119 474 149 447 q 179 419 231 390 q 267 372 278 365 z m 225 314 q 180 290 147 258 q 114 226 114 173 q 114 131 138 96 q 163 60 199 39 q 235 17 267 17 q 300 17 326 32 q 352 48 367 75 q 383 103 383 138 q 383 246 238 307 q 227 312 225 314 z"},"\\":{"x_min":0,"x_max":531,"ha":531,"o":"m 75 742 l 502 -145 l 457 -145 l 29 742 z"},"e":{"x_min":0,"x_max":365,"ha":365,"o":"m 345 254 l 101 201 q 104 155 110 130 q 117 105 136 79 q 174 30 227 30 q 249 30 274 38 q 299 46 329 68 l 338 56 q 253 -5 187 -5 q 117 -5 78 48 q 39 101 39 169 q 39 239 69 285 q 99 331 136 352 q 173 373 192 373 q 214 373 238 366 q 261 359 284 339 q 307 319 322 284 q 326 277 330 274 q 334 272 344 272 z m 102 220 l 166 234 q 170 236 196 242 q 221 248 230 249 q 255 255 262 257 q 269 260 269 265 q 269 273 257 292 q 246 311 224 326 q 202 342 173 342 q 136 342 121 303 q 105 265 102 220 z"},"b":{"x_min":0,"x_max":469,"ha":469,"o":"m 134 472 l 131 333 q 177 356 207 366 q 237 376 267 376 q 309 376 348 354 q 386 333 410 293 q 433 254 433 205 q 433 141 396 93 q 359 46 305 22 q 252 -2 204 -2 q 179 -2 137 11 q 112 18 103 18 q 94 18 86 15 q 79 12 70 5 l 62 1 l 56 5 l 63 32 q 75 101 75 359 q 75 444 73 517 q 72 568 64 584 q 56 600 26 600 q 21 600 18 600 q 14 601 12 602 q 11 603 11 606 q 115 660 121 664 q 131 673 136 673 q 144 673 144 663 q 141 612 139 605 q 134 498 134 472 z m 130 188 l 130 116 q 131 91 133 83 q 134 74 142 67 q 192 30 245 30 q 281 30 310 48 q 338 65 355 97 q 371 129 371 170 q 371 199 363 229 q 354 259 337 285 q 320 311 293 327 q 267 344 233 344 q 188 344 133 311 q 133 314 131 263 q 129 211 130 188 z"},"%":{"x_min":0,"x_max":813,"ha":813,"o":"m 203 646 q 242 646 275 626 q 309 607 329 571 q 349 535 349 490 q 349 449 331 409 q 313 369 279 344 q 245 318 198 318 q 158 318 124 336 q 90 355 70 391 q 50 427 50 476 q 50 525 71 564 q 91 603 127 624 q 163 646 203 646 z m 195 626 q 165 626 145 607 q 124 588 114 558 q 104 528 104 494 q 104 432 132 385 q 160 338 204 338 q 222 338 242 348 q 262 359 277 389 q 292 418 292 470 q 292 530 267 578 q 242 626 195 626 z m 624 310 q 664 310 697 290 q 731 270 751 233 q 771 197 771 153 q 771 123 761 92 q 751 62 731 36 q 711 10 683 -4 q 654 -19 619 -19 q 581 -19 546 0 q 512 19 491 54 q 471 90 471 139 q 471 213 516 262 q 562 310 624 310 z m 616 289 q 586 289 565 270 q 545 251 535 221 q 525 192 525 157 q 525 127 532 99 q 540 71 553 49 q 567 27 586 15 q 604 2 626 2 q 657 2 685 31 q 714 59 714 134 q 714 170 703 206 q 692 242 670 266 q 648 289 616 289 z m 185 -48 l 168 -41 q 193 -5 244 74 q 294 153 345 236 q 396 318 434 384 q 473 449 488 476 q 508 512 523 540 q 539 567 580 641 l 591 658 q 607 658 617 659 q 626 661 639 665 q 567 551 506 451 q 445 350 394 265 q 343 179 292 92 q 242 5 226 -27 q 201 -28 185 -48 z"},"m":{"x_min":0,"x_max":708,"ha":708,"o":"m 14 -1 l 15 14 q 44 21 58 31 q 71 42 77 75 q 83 108 83 176 q 83 242 76 270 q 70 297 57 304 q 44 311 14 312 l 14 328 q 66 340 121 373 q 127 377 131 377 q 141 377 143 352 q 145 326 143 307 q 153 313 179 327 q 206 341 220 348 q 235 355 259 363 q 282 370 300 370 q 325 370 350 356 q 375 341 384 308 q 474 356 540 356 q 587 356 608 335 q 630 314 635 281 q 639 248 639 186 l 639 99 q 638 62 638 48 q 639 34 643 30 q 647 25 658 24 q 662 23 685 19 q 708 14 712 13 l 705 0 l 520 0 l 517 13 q 547 21 559 30 q 570 40 574 70 q 579 100 579 176 q 579 221 572 252 q 564 283 544 300 q 525 317 490 317 q 446 317 388 290 q 391 270 392 219 q 393 169 394 116 q 395 63 395 48 q 396 35 399 30 q 403 24 412 22 q 422 20 453 15 l 453 0 l 392 0 q 384 0 331 -2 q 277 -4 267 -4 l 264 11 q 296 18 311 28 q 325 39 329 65 q 334 92 333 156 l 332 203 q 331 263 314 295 q 296 326 257 326 q 238 326 217 319 q 196 312 177 303 q 158 293 144 286 q 144 278 143 244 q 143 210 142 188 l 142 138 q 143 51 145 43 q 147 34 159 27 q 171 20 212 14 l 212 -3 q 206 -3 170 -1 q 134 1 127 1 z"},"#":{"x_min":0,"x_max":667,"ha":667,"o":"m 27 449 l 27 495 l 202 495 l 248 712 l 293 712 l 247 495 l 485 495 l 530 712 l 576 712 l 530 495 l 641 495 l 641 449 l 521 449 l 477 237 l 641 237 l 641 191 l 467 191 l 423 -25 l 377 -25 l 422 191 l 183 191 l 140 -25 l 93 -25 l 138 191 l 27 191 l 27 237 l 148 237 l 192 449 z m 432 237 l 476 449 l 237 449 l 193 237 z"},",":{"x_min":0,"x_max":198,"ha":198,"o":"m 40 -112 l 30 -96 q 60 -77 77 -61 q 94 -45 94 -20 q 94 10 66 30 q 53 41 51 44 q 48 47 48 57 q 82 75 94 117 q 101 117 105 118 q 117 90 139 79 q 151 74 155 71 q 158 68 158 63 q 158 60 145 33 l 143 18 q 135 -34 104 -64 q 74 -95 40 -112 z"},"n":{"x_min":0,"x_max":469,"ha":469,"o":"m 18 7 l 17 21 q 43 26 56 31 q 68 37 72 43 q 76 50 77 62 q 81 89 83 128 q 84 167 84 207 q 84 263 80 283 q 77 303 65 309 q 53 314 20 318 q 20 324 19 327 q 40 333 75 348 q 110 363 112 365 q 130 375 134 375 q 141 375 143 361 q 145 347 145 314 q 199 344 233 357 q 268 370 300 370 q 347 370 369 349 q 391 329 396 299 q 401 270 401 221 l 401 105 q 401 36 407 30 q 411 26 432 21 q 454 17 457 15 l 458 0 q 421 6 373 6 q 332 6 275 0 l 275 14 q 319 23 330 42 q 337 58 340 110 q 343 162 343 191 q 343 234 339 261 q 335 289 319 309 q 302 328 267 328 q 251 328 220 322 q 188 315 145 293 l 142 163 q 141 80 144 53 q 145 42 149 36 q 152 30 165 25 q 178 21 208 17 l 207 2 q 196 3 176 4 q 156 6 125 7 z"},"h":{"x_min":0,"x_max":469,"ha":469,"o":"m 18 594 l 18 613 q 29 618 32 620 l 127 666 l 143 675 l 159 667 q 150 623 146 566 q 142 508 140 420 l 137 321 q 195 346 231 357 q 267 369 300 369 q 347 369 368 341 q 390 312 395 271 q 400 229 400 162 q 400 149 400 138 q 399 126 399 106 q 398 86 398 69 q 397 52 397 50 q 397 29 407 22 q 417 15 464 15 l 463 0 l 431 0 q 424 0 371 0 q 318 -1 316 -1 q 315 -1 295 -6 q 290 -6 290 1 q 290 6 298 8 q 316 12 325 23 q 334 35 338 62 q 341 88 341 150 q 341 247 325 289 q 310 330 254 330 q 225 330 190 319 q 156 309 139 300 q 139 286 137 254 l 133 136 q 133 125 133 116 q 132 106 132 95 q 132 48 138 34 q 141 26 150 23 q 159 20 199 16 l 199 -1 q 183 1 131 1 q 77 1 14 -4 l 15 12 q 46 19 56 25 q 66 31 70 48 q 74 65 75 112 q 77 188 79 243 l 81 380 q 82 401 82 473 q 82 539 76 571 q 71 602 49 602 q 45 602 18 594 z"},"z":{"x_min":0,"x_max":406,"ha":406,"o":"m 20 -6 l 13 8 q 61 54 112 114 q 164 173 207 229 q 250 284 288 337 l 173 337 q 115 338 79 325 q 43 313 33 281 l 14 281 q 30 312 37 334 q 43 356 43 377 q 57 370 63 367 q 69 365 86 363 q 103 361 120 360 q 138 360 183 360 l 298 359 q 319 359 338 360 q 357 360 393 360 q 372 330 359 315 l 282 223 l 222 153 q 214 145 169 89 q 125 34 121 26 q 162 22 215 22 q 262 22 293 27 q 323 33 346 52 q 370 72 380 110 l 395 110 q 390 66 365 -7 q 357 -7 355 -5 q 328 0 288 0 l 110 -1 q 50 -1 20 -6 z"},"B":{"x_min":0,"x_max":510,"ha":510,"o":"m 299 345 q 368 333 410 304 q 453 275 469 240 q 486 205 486 166 q 486 59 407 28 q 328 -3 245 -3 q 237 -3 217 -2 q 196 -1 176 -1 q 155 0 144 0 q 133 0 119 0 q 90 0 24 -4 l 24 14 q 43 16 55 19 q 67 22 76 31 q 84 39 87 53 q 92 74 94 141 q 97 207 98 276 q 99 344 99 382 q 99 422 98 460 q 97 499 93 535 q 89 572 82 584 q 75 598 62 604 q 48 609 25 613 l 25 632 q 77 628 116 628 q 125 628 184 632 q 247 636 250 636 q 297 636 336 619 q 375 601 399 566 q 423 531 423 485 q 423 436 393 400 q 362 364 299 345 z m 161 409 l 161 349 q 172 350 186 350 q 230 351 263 358 q 296 365 322 392 q 348 418 348 474 q 348 518 330 549 q 312 580 281 596 q 250 612 215 612 q 181 612 174 604 q 167 599 164 530 q 161 460 161 409 z m 161 326 l 161 135 q 161 85 163 64 q 165 44 172 34 q 180 24 194 22 q 209 20 246 20 q 286 20 323 32 q 359 45 385 76 q 410 107 410 160 q 410 189 399 220 q 388 251 365 275 q 343 299 306 315 q 269 330 220 330 q 208 330 192 329 q 176 328 161 326 z"},"K":{"x_min":0,"x_max":625,"ha":625,"o":"m 28 614 l 27 631 q 107 627 143 627 q 179 627 201 629 q 224 631 244 634 l 244 618 q 187 611 176 591 q 171 582 168 538 q 165 495 163 445 q 161 394 161 370 l 161 312 q 178 327 221 370 l 341 488 q 392 539 406 557 q 417 570 417 586 q 417 608 369 611 l 368 629 l 449 628 q 499 626 553 633 l 554 614 q 514 609 450 555 q 386 501 331 447 l 263 381 q 234 354 216 334 l 397 183 q 516 85 553 56 q 591 27 620 10 l 621 -6 q 616 -5 609 -4 q 602 -3 591 -2 q 567 0 545 0 q 504 0 438 -6 l 437 8 q 441 9 445 10 q 449 11 458 13 q 478 17 478 24 q 478 39 369 125 l 279 198 q 263 211 252 219 q 242 228 220 244 q 199 260 175 278 q 168 283 162 287 q 161 243 163 150 q 166 57 170 43 q 177 27 205 17 q 232 7 245 7 l 245 -8 q 228 -5 181 -3 q 156 -2 104 -2 q 61 -2 23 -4 l 23 13 q 52 16 65 23 q 79 30 83 50 q 87 67 91 121 q 94 174 96 239 q 97 303 97 315 q 97 432 94 490 q 94 533 92 556 q 90 579 84 590 q 78 602 65 606 q 53 610 28 614 z"},"R":{"x_min":0,"x_max":667,"ha":667,"o":"m 316 218 l 260 298 q 195 298 153 304 l 152 187 q 152 150 154 104 q 156 58 164 39 q 168 27 177 22 q 187 18 220 9 q 231 6 231 1 q 231 -10 224 -10 q 216 -10 183 -5 q 141 -1 132 -1 q 84 -1 34 -8 q 31 -8 26 -9 q 16 -9 16 0 q 16 5 20 7 q 23 10 36 13 q 58 19 68 31 q 78 43 82 78 q 86 113 87 190 l 87 406 q 88 485 86 522 q 84 559 78 576 q 72 594 59 600 q 45 605 17 609 l 19 625 q 45 624 85 624 q 97 624 170 630 q 244 636 263 636 q 314 636 355 622 q 396 608 424 584 q 452 561 466 531 q 480 501 480 469 q 480 437 465 406 q 451 375 421 350 q 391 325 344 307 l 366 274 q 412 205 442 162 q 473 119 508 80 q 542 40 579 15 q 615 -9 650 -12 q 659 -14 659 -22 q 659 -26 655 -29 q 650 -31 634 -31 q 586 -31 542 -10 q 499 11 459 46 q 419 81 389 120 q 358 158 316 218 z m 156 332 q 188 324 235 324 q 258 324 284 328 q 311 331 338 343 q 366 354 386 382 q 406 410 406 457 q 406 490 388 527 q 371 563 335 589 q 299 615 247 615 q 226 615 198 610 q 171 604 167 592 q 156 568 156 332 z"},"T":{"x_min":0,"x_max":667,"ha":667,"o":"m 29 525 l 12 529 q 35 590 53 645 q 65 634 71 631 q 77 628 92 626 q 123 622 234 622 l 481 622 q 490 622 541 623 q 591 624 598 624 q 619 624 625 627 q 632 629 640 638 q 645 631 653 626 q 636 580 626 526 l 605 523 q 607 539 609 567 q 595 579 565 586 q 535 593 468 593 q 419 593 403 592 q 388 591 384 588 q 380 585 379 574 l 376 509 q 376 493 373 423 q 373 405 372 327 q 372 249 371 191 q 371 118 373 88 q 374 59 381 43 q 388 27 402 22 q 416 18 449 13 q 471 11 471 7 q 471 -3 470 -5 q 463 -6 451 -6 q 421 -4 399 -3 q 366 0 346 0 q 299 0 242 -9 q 211 -14 208 -14 q 201 -14 198 -11 q 194 -7 191 2 q 197 4 221 10 q 255 18 270 24 q 285 30 289 40 q 293 49 293 69 q 293 93 297 124 q 297 121 298 182 q 299 243 299 269 q 300 294 300 330 q 300 435 299 479 q 298 524 296 549 q 293 574 288 588 q 246 592 196 592 q 143 592 114 588 q 85 585 69 577 q 53 569 47 560 q 40 550 29 525 z"},"P":{"x_min":0,"x_max":531,"ha":531,"o":"m 27 -7 l 27 8 q 64 19 75 24 q 87 29 89 41 q 96 69 96 267 q 96 298 96 334 q 96 370 95 390 q 95 410 93 451 q 92 479 89 522 q 87 564 85 575 q 83 587 78 594 q 71 604 58 608 q 44 612 18 615 q 17 625 18 635 q 57 632 110 632 q 125 632 163 634 l 194 636 q 205 637 225 637 q 294 637 346 618 q 397 599 432 568 q 467 536 484 500 q 501 464 501 430 q 501 377 469 331 q 437 285 374 256 q 311 227 225 227 q 192 227 162 232 q 163 194 163 143 q 164 92 164 81 q 166 52 171 39 q 177 26 196 21 q 214 16 257 13 l 256 -9 q 237 -5 206 -4 q 168 -2 154 -2 q 100 -2 70 -7 l 45 -10 q 35 -10 27 -7 z m 167 603 q 167 599 166 552 q 165 505 164 475 q 163 445 162 410 q 161 375 161 369 q 161 322 162 265 q 205 254 241 254 q 282 254 323 270 q 364 286 393 324 q 421 362 421 425 q 421 473 400 516 q 379 559 336 585 q 293 612 234 612 q 203 612 167 603 z"},"|":{"x_min":0,"x_max":531,"ha":531,"o":"m 242 -144 l 242 742 l 289 742 l 289 -144 z"},"t":{"x_min":0,"x_max":292,"ha":292,"o":"m 71 140 l 73 330 q 51 333 21 333 q 22 337 22 345 q 64 371 88 395 q 112 418 145 461 l 140 373 q 182 369 232 369 q 256 369 284 370 l 283 340 q 258 337 231 337 q 229 337 212 338 q 195 338 160 340 q 151 340 146 338 q 142 336 140 332 q 138 327 137 313 q 137 299 136 284 l 134 132 q 133 88 144 59 q 155 31 197 31 q 213 31 237 38 q 260 45 291 59 q 292 55 292 53 q 292 51 293 49 q 276 30 230 12 q 185 -6 148 -6 q 116 -6 94 16 q 71 38 71 91 z"},"M":{"x_min":0,"x_max":875,"ha":875,"o":"m 21 615 l 23 634 q 32 634 41 633 q 50 632 72 632 q 97 630 119 628 q 141 627 164 627 q 173 627 182 628 q 190 628 206 628 q 222 584 235 555 q 248 525 287 450 q 325 376 361 309 q 397 242 451 140 q 473 177 523 273 q 532 291 591 401 q 650 511 674 557 q 698 602 710 629 q 748 628 793 628 q 830 628 852 629 l 851 611 q 813 606 798 601 q 782 595 774 581 q 766 567 763 540 q 761 513 762 446 l 765 310 q 766 298 766 287 q 766 275 767 259 q 768 242 769 215 q 770 188 771 149 q 773 103 777 80 q 780 57 789 44 q 798 31 813 27 q 828 23 858 22 l 858 4 l 774 5 l 709 4 q 655 4 616 -1 l 615 17 q 656 27 674 38 q 691 50 699 79 q 707 108 707 166 q 707 203 706 226 l 702 358 q 699 443 689 514 q 674 486 644 429 q 613 373 588 324 q 562 276 538 230 q 514 184 499 152 q 468 83 458 60 q 448 36 438 5 l 423 4 q 411 42 394 88 q 376 134 345 194 q 282 314 177 517 q 168 434 161 323 q 153 212 153 89 q 153 51 169 36 q 185 21 243 14 l 242 -2 q 210 2 173 2 l 114 1 q 104 1 95 1 q 86 0 70 0 q 54 0 39 -1 q 23 -2 16 -2 l 17 12 q 64 21 83 36 q 103 52 109 82 q 115 112 120 189 l 135 444 q 137 479 137 491 q 137 541 124 567 q 111 593 87 602 q 63 612 21 615 z"},"g":{"x_min":0,"x_max":417,"ha":417,"o":"m 167 64 q 139 71 111 84 q 82 98 59 129 q 36 159 36 211 q 36 258 61 297 q 86 336 127 359 q 167 381 209 381 q 235 381 257 374 q 280 367 299 352 q 334 359 373 359 q 399 359 408 357 q 407 331 395 304 q 362 318 325 318 q 332 309 338 294 q 344 279 348 262 q 352 245 352 229 q 352 184 332 153 q 312 122 282 103 q 253 84 207 62 q 121 24 121 7 q 121 -23 193 -23 q 252 -23 286 -25 q 319 -27 344 -35 q 370 -43 384 -63 q 398 -83 398 -118 q 398 -166 361 -202 q 324 -238 267 -258 q 209 -278 152 -278 q 78 -278 49 -245 q 20 -213 20 -177 q 20 -136 45 -111 q 70 -86 109 -63 q 57 -35 58 12 q 81 30 135 50 z m 219 90 q 254 108 274 131 q 294 153 294 204 q 294 233 286 260 q 277 286 263 307 q 248 327 227 340 q 206 352 179 352 q 139 352 112 322 q 85 291 85 244 q 85 178 125 145 q 164 112 219 90 z m 136 -74 q 106 -83 82 -105 q 57 -127 57 -155 q 57 -187 95 -213 q 132 -239 192 -239 q 226 -239 265 -229 q 305 -219 333 -197 q 361 -175 361 -143 q 361 -121 346 -102 q 330 -83 299 -80 q 292 -79 249 -80 q 207 -80 198 -80 q 155 -80 136 -74 z"},"j":{"x_min":0,"x_max":229,"ha":229,"o":"m 26 306 l 19 321 q 101 354 157 401 q 162 396 165 394 q 153 356 153 278 l 153 125 l 155 -43 q 156 -91 152 -116 q 147 -141 129 -164 q 111 -187 67 -223 q 46 -240 41 -250 q 35 -260 32 -280 l 30 -281 l 15 -267 q 16 -244 25 -226 q 34 -208 52 -185 q 74 -156 83 -131 q 92 -106 94 -73 q 96 -40 96 37 q 96 111 94 178 q 92 246 87 271 q 83 291 75 301 q 68 311 52 311 q 47 311 26 306 z m 94 576 q 94 596 107 607 q 120 619 136 619 q 146 619 155 615 q 164 610 169 601 q 174 592 174 583 q 174 568 160 555 q 147 542 130 542 q 114 542 104 552 q 94 561 94 576 z"},"i":{"x_min":0,"x_max":240,"ha":240,"o":"m 32 -2 l 34 13 q 76 17 81 28 q 83 32 85 63 q 87 93 89 135 q 90 178 90 183 q 90 252 88 272 q 85 292 79 299 q 77 301 55 304 q 32 306 32 310 q 32 318 41 320 q 99 338 155 384 q 158 384 164 382 q 159 362 156 323 q 152 285 150 242 q 148 200 148 167 q 148 143 150 97 q 151 51 156 35 q 160 26 166 24 q 171 21 189 20 q 206 20 223 17 l 229 3 z m 106 582 q 106 599 117 609 q 128 620 144 620 q 160 620 170 609 q 181 598 181 582 q 181 566 171 555 q 160 544 144 544 q 128 544 117 555 q 106 566 106 582 z"},"y":{"x_min":0,"x_max":406,"ha":406,"o":"m 11 341 l 11 356 q 35 353 78 353 q 128 353 178 359 l 177 341 q 157 337 148 332 q 139 327 139 312 q 139 289 160 210 q 181 132 210 55 l 242 113 q 263 149 292 213 q 321 278 321 302 q 321 336 253 344 l 260 360 q 318 354 361 354 q 393 354 409 357 l 408 341 q 395 339 385 331 q 374 323 365 308 q 356 294 345 272 l 292 162 q 291 160 255 90 q 203 -13 177 -73 q 150 -134 138 -174 q 126 -214 111 -280 l 7 -280 l 7 -263 q 39 -256 59 -240 q 78 -225 94 -198 q 109 -172 133 -118 l 171 -33 q 143 72 120 151 q 96 231 75 281 q 65 306 55 319 q 45 331 37 334 q 28 337 11 341 z"},"@":{"x_min":0,"x_max":979,"ha":979,"o":"m 652 488 l 734 499 l 673 291 q 672 289 669 275 q 665 262 662 250 q 640 171 633 141 q 625 111 625 93 q 625 81 635 68 q 644 54 664 54 q 701 54 740 80 q 779 106 812 154 q 846 202 865 263 q 885 325 885 393 q 885 462 861 521 q 836 580 792 623 q 748 666 685 690 q 623 714 547 714 q 447 714 364 672 q 280 631 221 560 q 163 488 131 399 q 100 309 100 218 q 100 125 130 48 q 161 -28 217 -84 q 272 -141 347 -170 q 421 -199 508 -199 q 564 -199 623 -185 q 681 -170 738 -136 q 795 -103 844 -46 q 893 11 927 90 l 957 90 q 932 12 885 -48 q 838 -108 776 -149 q 713 -190 644 -210 q 575 -230 505 -230 q 411 -230 328 -197 q 246 -164 182 -100 q 119 -37 85 48 q 51 133 51 232 q 51 340 90 434 q 128 528 197 597 q 265 665 354 703 q 444 741 544 741 q 636 741 707 712 q 778 682 824 632 q 870 582 893 518 q 916 454 916 384 q 916 321 897 257 q 878 192 842 138 q 805 83 750 50 q 696 16 628 16 q 588 16 569 34 q 549 52 549 88 q 549 112 558 162 l 556 164 q 521 121 494 92 q 466 63 428 40 q 391 16 353 16 q 323 16 301 35 q 279 54 268 83 q 258 111 258 137 q 258 215 304 301 q 351 387 419 445 q 488 502 545 502 q 582 502 604 484 q 626 467 634 431 l 636 431 z m 551 478 q 504 478 455 418 q 407 358 374 278 q 341 198 341 153 q 341 125 358 102 q 375 79 401 79 q 444 79 495 127 q 546 175 581 251 q 616 327 616 403 q 616 435 599 456 q 582 478 551 478 z"},".":{"x_min":0,"x_max":198,"ha":198,"o":"m 38 44 q 38 51 51 59 q 72 70 88 99 q 93 107 101 107 q 109 107 114 99 q 118 91 118 88 q 137 63 150 56 q 159 52 160 50 q 162 47 162 42 q 162 35 154 30 q 132 20 115 -8 q 108 -19 101 -19 q 93 -19 86 -9 q 77 7 71 15 q 64 22 49 30 q 42 35 40 37 q 38 39 38 44 z"},"p":{"x_min":0,"x_max":479,"ha":479,"o":"m 15 305 l 11 319 q 35 333 44 337 q 51 337 87 357 q 123 378 136 395 q 140 383 147 326 l 189 343 q 254 370 288 370 q 325 370 361 346 q 397 322 420 282 q 443 241 443 195 q 443 136 416 96 q 389 57 350 36 q 311 15 274 6 q 238 -2 219 -2 q 189 -2 147 12 q 147 3 146 -43 q 145 -89 145 -97 l 145 -186 q 145 -217 147 -230 q 150 -244 156 -247 q 163 -251 179 -252 l 215 -254 q 227 -254 227 -263 q 227 -269 223 -271 q 220 -272 206 -272 q 146 -272 130 -273 q 115 -273 31 -279 q 31 -270 30 -264 q 55 -262 63 -257 q 71 -252 76 -240 q 84 -219 86 -154 q 89 -89 89 -19 l 90 42 q 90 112 89 187 q 88 262 85 279 q 83 289 77 298 q 72 307 65 312 q 58 318 51 318 q 45 318 15 305 z m 146 306 l 145 59 l 190 44 q 241 27 261 27 q 285 27 314 39 q 344 51 366 79 q 388 107 388 153 q 388 203 365 245 q 342 287 308 311 q 274 335 243 335 q 228 335 146 306 z"},"X":{"x_min":0,"x_max":677,"ha":677,"o":"m 18 618 l 19 635 q 68 629 143 629 q 205 629 240 632 l 243 613 q 192 613 192 595 q 192 586 205 565 q 218 544 235 522 q 251 499 268 477 l 356 366 q 434 470 462 512 q 490 555 490 579 q 490 601 473 608 q 457 615 425 617 l 427 634 q 434 634 480 632 q 526 630 535 630 l 636 630 l 636 614 q 611 611 595 605 q 578 598 562 585 q 547 571 526 546 q 505 521 470 477 l 432 427 l 399 382 q 394 375 385 362 q 375 349 372 346 l 536 128 q 576 75 594 53 q 613 32 626 26 q 640 19 669 14 l 671 -4 q 653 -2 627 -2 q 589 0 561 0 q 515 0 441 -4 l 438 14 q 468 20 484 26 q 499 32 499 43 q 499 55 489 75 q 479 95 469 109 q 404 199 383 226 l 330 293 q 301 261 202 126 q 183 99 173 82 q 164 65 164 53 q 164 34 183 25 q 202 17 232 13 l 232 -4 q 200 -2 154 -2 l 122 -1 q 120 -1 92 -2 q 63 -2 35 -3 q 7 -4 5 -4 l 6 11 q 45 17 75 36 q 104 56 135 90 q 166 125 221 197 l 279 271 q 281 273 291 285 q 300 298 306 306 q 311 313 313 316 l 267 373 q 197 463 159 510 q 120 558 96 580 q 73 603 57 609 q 42 616 18 618 z"},"*":{"x_min":0,"x_max":354,"ha":354,"o":"m 16 552 l 25 568 q 84 542 137 539 q 160 585 168 651 l 186 651 q 190 610 198 586 q 206 563 217 539 q 267 542 330 568 l 338 552 q 285 511 258 469 q 284 428 338 387 l 330 371 q 269 397 217 400 q 193 352 186 288 l 168 288 q 160 354 137 400 q 82 396 25 371 l 16 387 q 69 426 96 469 q 69 512 16 552 z m 114 469 q 114 444 132 425 q 150 406 177 406 q 204 406 222 425 q 240 444 240 469 q 240 495 222 514 q 204 533 177 533 q 150 533 132 514 q 114 495 114 469 z"},"Y":{"x_min":0,"x_max":667,"ha":667,"o":"m 9 610 l 6 627 l 54 627 q 90 625 107 625 q 124 624 126 624 q 140 624 163 625 q 186 626 218 627 l 241 626 l 239 607 q 205 604 192 601 q 180 598 180 588 q 180 577 217 525 q 253 473 301 410 q 348 348 368 324 q 383 344 412 387 l 449 443 q 469 471 493 514 q 517 558 517 575 q 517 610 451 607 l 453 626 l 494 624 q 499 624 526 623 q 554 622 558 622 q 565 622 606 623 q 646 624 654 624 l 653 604 q 621 603 601 593 q 581 583 555 552 q 529 521 484 453 l 430 372 l 379 292 l 381 134 q 381 75 383 56 q 384 37 391 30 q 397 24 416 19 q 433 16 468 6 l 467 -7 q 471 -7 430 -4 l 400 -2 q 380 0 368 0 l 347 0 q 340 0 288 -4 q 247 -9 228 -9 l 228 7 q 279 9 296 27 q 304 34 307 45 q 310 57 311 98 q 312 138 312 227 q 312 276 311 287 l 271 346 q 241 389 214 425 q 188 461 171 480 q 119 546 96 570 q 74 594 58 601 q 42 608 9 610 z"},"c":{"x_min":0,"x_max":375,"ha":375,"o":"m 350 61 l 357 47 q 292 -7 223 -7 q 184 -7 141 10 q 99 26 75 52 q 60 70 52 102 q 43 135 43 165 q 43 226 76 276 q 108 326 156 354 q 204 382 245 382 q 270 382 314 368 q 359 354 359 342 q 359 337 345 316 q 332 296 323 296 q 319 296 312 300 q 305 304 288 313 q 235 335 200 335 q 151 335 126 303 q 101 271 101 206 q 101 147 127 106 q 153 66 189 47 q 226 29 256 29 q 281 29 303 38 q 325 46 350 61 z"},"!":{"x_min":0,"x_max":208,"ha":208,"o":"m 112 163 l 92 166 q 96 265 96 410 q 96 469 94 489 q 91 508 81 514 q 70 522 70 526 q 70 533 80 534 q 89 537 169 568 q 175 568 175 561 q 175 556 174 552 l 128 273 q 125 256 114 174 q 112 172 112 163 z m 38 44 q 38 51 51 59 q 72 70 88 99 q 93 107 101 107 q 109 107 114 99 q 118 91 118 88 q 137 63 150 56 q 159 52 160 50 q 162 47 162 42 q 162 35 154 30 q 132 20 115 -8 q 108 -19 101 -19 q 93 -19 86 -9 q 77 7 71 15 q 64 22 49 30 q 42 35 40 37 q 38 39 38 44 z"},"/":{"x_min":0,"x_max":531,"ha":531,"o":"m 29 -145 l 456 742 l 502 742 l 74 -145 z"},"[":{"x_min":0,"x_max":313,"ha":313,"o":"m 74 -270 l 74 663 l 282 663 l 282 635 l 102 635 l 102 -240 l 282 -240 l 282 -270 z"},"6":{"x_min":0,"x_max":490,"ha":490,"o":"m 387 643 l 394 625 q 317 595 264 550 q 212 505 182 455 q 151 404 139 353 q 126 302 126 256 q 126 178 150 123 q 174 68 210 41 q 246 14 279 14 q 309 14 334 31 q 360 47 375 80 q 390 112 390 156 q 390 205 372 247 q 354 289 323 314 q 292 340 257 340 q 220 340 169 301 l 170 323 q 222 359 243 368 q 263 378 295 378 q 335 378 372 353 q 408 329 429 287 q 451 246 451 200 q 451 149 427 101 q 402 53 358 23 q 313 -7 260 -7 q 221 -7 184 10 q 147 27 119 60 q 90 93 73 139 q 56 185 56 238 q 56 294 72 352 q 87 410 125 466 q 163 521 228 568 q 293 615 387 643 z"},"r":{"x_min":0,"x_max":313,"ha":313,"o":"m 24 -1 l 25 13 q 49 18 59 23 q 68 28 75 46 q 82 64 84 100 q 86 136 86 211 q 86 270 80 290 q 73 309 48 309 q 33 309 17 305 l 19 321 l 145 394 q 147 364 147 311 l 199 341 q 203 343 206 345 q 211 348 218 352 q 225 356 242 366 q 258 376 268 383 l 272 381 q 275 378 279 376 q 293 369 302 360 q 310 352 310 335 q 310 316 294 304 q 279 292 257 289 q 257 306 249 314 q 241 323 227 323 q 212 323 192 313 q 172 302 162 293 q 150 282 148 275 q 146 268 145 240 q 142 158 142 153 q 142 58 152 35 q 156 27 162 26 q 167 24 180 24 l 193 25 l 251 26 l 250 6 q 248 6 219 5 q 191 4 181 4 z"},"2":{"x_min":0,"x_max":490,"ha":490,"o":"m 318 0 l 86 0 q 56 0 18 -5 q 14 3 12 6 l 83 79 q 332 331 332 451 q 332 507 297 539 q 261 571 209 571 q 133 571 82 516 l 64 531 q 88 558 111 577 q 133 596 168 612 q 203 627 245 627 q 288 627 324 609 q 360 590 381 556 q 402 521 402 477 q 402 432 383 391 q 364 350 328 306 q 292 263 233 201 l 152 115 q 150 113 144 106 q 137 99 130 91 l 103 62 l 257 61 q 319 61 341 63 q 363 64 383 73 q 402 81 417 100 q 433 118 453 155 l 471 145 l 416 44 q 412 36 405 23 q 398 10 392 -2 q 386 -14 380 -25 l 365 -24 q 360 -9 349 -5 q 339 0 318 0 z"},"{":{"x_min":0,"x_max":510,"ha":510,"o":"m 119 168 l 119 186 q 149 189 176 204 q 202 219 216 241 q 231 263 231 288 q 231 300 221 364 q 211 427 211 443 q 211 489 234 530 q 257 571 299 598 q 341 625 391 631 l 391 614 q 355 606 329 589 q 303 571 291 549 q 279 526 279 502 q 279 496 281 477 q 284 458 288 431 q 292 404 296 378 q 300 353 300 345 q 300 317 291 292 q 281 268 263 246 q 246 225 219 208 q 193 190 159 178 l 159 176 q 226 154 263 109 q 300 64 300 9 q 300 -1 290 -69 q 279 -132 279 -148 q 279 -186 308 -217 q 336 -248 391 -260 l 391 -277 q 341 -271 299 -244 q 257 -217 234 -176 q 211 -135 211 -89 q 211 -78 221 -14 q 231 51 231 66 q 231 91 216 113 q 202 135 176 150 q 149 165 119 168 z"},"9":{"x_min":0,"x_max":490,"ha":490,"o":"m 103 -21 l 95 -3 q 195 36 256 101 q 316 166 340 234 q 364 303 364 366 q 364 427 349 474 q 334 521 311 549 q 288 578 261 593 q 235 608 211 608 q 181 608 155 591 q 129 574 114 542 q 99 510 99 467 q 99 418 117 376 q 136 333 167 308 q 198 282 232 282 q 255 282 279 295 q 304 308 320 321 l 320 299 q 286 276 266 265 q 247 253 231 249 q 215 244 195 244 q 154 244 118 269 q 82 293 61 334 q 39 375 39 422 q 39 473 64 521 q 88 569 132 599 q 176 629 229 629 q 269 629 306 612 q 344 594 372 562 q 400 531 417 485 q 434 438 434 384 q 434 345 425 299 q 417 253 392 201 q 367 149 322 105 q 295 78 263 55 q 230 32 203 19 q 176 6 148 -5 q 120 -15 103 -21 z"}," ":{"x_min":0,"x_max":245,"ha":245,"o":""},"I":{"x_min":0,"x_max":313,"ha":313,"o":"m 20 612 l 20 633 q 75 630 89 629 q 139 627 156 627 q 162 627 207 629 q 251 631 291 633 l 291 610 q 248 610 232 605 q 217 601 209 587 q 193 556 193 352 q 193 211 193 174 q 193 137 195 94 q 196 60 200 46 q 205 32 224 25 q 244 18 287 17 l 285 -2 q 278 -2 258 -1 q 238 0 216 0 q 194 0 183 1 q 171 1 156 1 q 134 1 120 1 q 105 0 82 0 q 58 0 38 -1 q 19 -2 15 -2 l 14 16 q 67 19 85 28 q 104 38 111 58 q 121 84 123 158 q 126 231 126 313 q 126 387 121 525 q 120 563 114 579 q 107 596 86 604 q 65 611 20 612 z"},"H":{"x_min":0,"x_max":771,"ha":771,"o":"m 22 -6 l 15 12 q 67 18 78 33 q 86 45 91 141 q 96 238 96 308 l 97 469 q 97 535 93 564 q 88 593 73 602 q 59 612 27 613 l 28 629 q 56 634 77 634 q 84 634 128 632 q 161 629 180 629 l 251 630 q 251 621 252 613 l 226 609 q 202 605 193 601 q 184 596 180 581 q 176 566 171 520 q 166 476 166 416 q 166 366 167 338 l 398 338 q 530 338 562 338 q 593 339 607 342 l 608 445 q 608 529 606 550 q 604 571 599 583 q 594 599 582 604 q 569 610 530 618 l 532 636 q 555 633 577 631 q 606 628 641 628 q 650 628 692 630 q 736 632 741 632 l 743 618 q 736 616 734 615 q 714 610 704 603 q 693 595 689 578 q 684 561 683 540 q 681 518 679 435 l 675 210 q 672 117 677 77 q 682 36 696 24 q 709 12 744 8 l 743 -7 q 724 -2 696 -1 q 680 0 655 0 q 646 0 596 -2 q 557 -5 535 -5 l 533 12 q 566 16 580 25 q 594 35 598 55 q 603 76 604 126 l 607 237 l 606 301 l 552 303 l 273 305 l 167 304 q 164 247 164 134 q 164 63 170 46 q 172 37 178 30 q 185 24 199 19 q 213 14 242 8 l 241 -8 q 231 -7 205 -5 q 180 -3 156 -2 q 132 -1 113 -1 q 82 -1 22 -6 z"},"4":{"x_min":0,"x_max":490,"ha":490,"o":"m 191 -6 l 191 17 q 226 17 243 21 q 260 25 268 38 q 276 51 279 77 q 282 104 283 158 l 284 192 l 174 192 q 155 192 122 190 q 88 188 60 187 q 33 186 15 185 q 14 189 10 194 q 66 265 107 316 q 148 368 187 419 q 225 470 261 524 q 298 577 330 633 q 340 635 354 640 q 353 615 351 525 q 350 435 350 388 l 349 234 l 403 235 q 420 235 434 240 q 447 245 464 263 l 478 257 l 445 187 q 414 190 349 190 q 349 124 350 96 q 352 68 357 52 q 362 35 373 28 q 383 21 407 16 l 407 -1 q 389 0 344 0 q 251 0 191 -6 z m 286 517 q 265 484 240 451 q 191 385 181 372 q 172 360 157 340 l 74 234 q 179 233 285 234 l 287 320 q 288 366 286 517 z"},"~":{"x_min":0,"x_max":667,"ha":667,"o":"m 78 272 l 56 272 q 60 335 85 367 q 110 399 135 407 q 160 415 177 415 q 199 415 238 404 q 276 393 375 350 q 409 335 432 327 q 455 320 467 318 q 479 316 491 316 q 512 316 532 324 q 553 333 568 354 q 584 376 588 413 l 611 413 q 610 370 593 338 q 575 305 547 288 q 518 271 484 271 q 463 271 449 274 q 435 277 401 290 q 367 303 290 334 q 242 354 217 361 q 192 367 175 367 q 98 367 78 272 z"},"D":{"x_min":0,"x_max":719,"ha":719,"o":"m 25 605 l 24 623 q 155 623 244 634 q 277 638 313 638 q 386 638 452 616 q 519 595 570 554 q 622 513 652 454 q 681 395 681 322 q 681 233 635 160 q 590 86 505 44 q 420 2 312 2 q 306 2 273 3 q 241 4 236 4 q 217 4 202 4 q 187 3 158 3 q 130 2 104 2 q 78 1 68 1 l 20 2 l 20 20 q 72 20 83 43 q 95 70 95 286 q 95 430 92 500 q 88 571 78 588 q 65 606 25 605 z m 596 321 q 596 414 552 480 q 508 547 440 581 q 372 615 300 615 q 229 615 173 590 q 168 562 166 427 q 163 291 163 193 q 163 189 164 156 q 165 124 165 90 q 166 57 166 52 q 215 36 242 30 q 268 24 308 24 q 409 24 474 68 q 539 111 567 179 q 596 247 596 321 z"},"^":{"x_min":0,"x_max":500,"ha":500,"o":"m 244 641 l 259 641 l 481 268 l 433 268 l 251 573 l 68 268 l 19 268 z"},"0":{"x_min":0,"x_max":490,"ha":490,"o":"m 26 299 q 26 402 59 476 q 92 550 144 588 q 195 625 251 625 q 299 625 339 601 q 378 578 406 535 q 434 493 449 437 q 464 380 464 315 q 464 225 437 151 q 409 78 358 36 q 307 -6 239 -6 q 173 -6 125 38 q 76 81 51 151 q 26 221 26 299 z m 99 344 q 99 312 103 262 q 107 212 123 155 q 138 99 169 59 q 201 19 253 19 q 301 19 332 55 q 363 91 377 148 q 391 205 391 270 q 391 316 383 388 q 375 461 348 520 q 339 539 326 556 q 313 574 291 587 q 269 601 241 601 q 220 601 197 592 q 174 582 151 554 q 128 526 114 475 q 99 423 99 344 z"},"F":{"x_min":0,"x_max":510,"ha":510,"o":"m 12 615 l 12 630 l 75 631 q 84 631 164 629 q 204 628 229 627 q 254 626 258 626 q 395 626 480 633 q 478 605 477 569 q 477 533 477 510 l 457 510 q 455 548 445 566 q 435 584 398 594 q 361 604 278 604 q 194 604 167 597 q 163 544 163 418 l 163 341 q 222 336 274 336 q 342 336 371 341 q 399 346 406 357 q 412 369 412 398 q 423 398 431 400 q 433 368 433 341 q 433 290 431 239 l 411 239 q 411 288 403 293 q 392 301 350 307 q 308 314 251 314 q 193 314 164 311 q 162 219 162 146 q 162 99 164 79 q 167 60 176 47 q 186 35 204 30 q 223 25 267 19 l 267 0 q 204 3 161 3 l 113 3 q 74 3 23 -1 l 24 15 q 56 21 67 30 q 79 40 82 58 q 93 116 93 325 q 93 353 93 380 q 92 407 92 453 q 91 499 88 535 q 85 571 80 584 q 74 601 59 606 q 43 612 12 615 z"},"`":{"x_min":0,"x_max":333,"ha":333,"o":"m 161 608 l 257 434 l 234 434 l 93 608 z"},"k":{"x_min":0,"x_max":458,"ha":458,"o":"m 13 -1 l 13 15 q 36 18 47 22 q 59 27 63 35 q 68 44 71 61 q 74 99 76 172 q 77 245 78 319 q 79 392 79 434 q 79 543 70 577 q 63 598 47 598 q 39 598 30 595 q 20 591 15 589 l 16 605 q 20 607 28 612 q 36 616 42 618 q 47 621 57 625 q 66 630 75 634 q 106 647 120 655 q 134 662 141 672 l 156 672 q 150 654 146 606 q 142 558 139 483 q 136 407 135 354 q 135 300 135 287 l 134 220 q 144 224 177 246 q 211 269 237 293 q 263 317 263 332 q 263 344 254 349 q 245 353 227 355 l 227 369 l 272 368 q 286 367 337 367 q 362 367 418 368 l 416 350 q 385 347 358 335 q 331 323 281 290 l 197 234 q 212 218 324 110 q 382 52 407 36 q 432 20 454 16 l 454 -1 q 447 0 440 1 q 432 1 427 2 q 421 2 401 2 l 363 2 q 310 2 277 -1 l 277 16 q 282 18 293 19 q 304 21 311 22 q 317 24 317 27 q 317 32 301 51 q 286 69 276 79 q 236 120 203 151 l 171 180 q 167 184 156 193 q 146 202 142 202 q 134 202 134 185 l 134 133 q 134 87 135 67 q 135 47 138 38 q 140 28 146 26 q 158 21 193 16 l 192 -1 q 167 3 130 3 q 76 3 13 -1 z"},"u":{"x_min":0,"x_max":458,"ha":458,"o":"m 10 296 l 10 316 l 118 376 l 128 380 q 135 380 135 371 l 129 287 q 123 188 123 164 q 123 109 138 73 q 152 36 206 36 q 223 36 241 42 q 260 47 284 59 q 308 70 322 77 q 322 114 323 125 l 326 225 q 328 271 323 289 q 319 308 306 313 q 294 319 265 320 l 264 338 l 394 368 q 392 324 389 284 q 386 245 384 199 q 382 154 382 132 q 382 61 391 32 q 417 33 446 44 l 446 22 q 391 7 334 -14 q 326 13 321 55 q 201 -6 155 -6 q 124 -6 92 24 q 61 54 64 139 l 68 249 q 69 278 66 294 q 62 309 47 309 q 38 309 10 296 z"},"]":{"x_min":0,"x_max":313,"ha":313,"o":"m 238 663 l 238 -270 l 30 -270 l 30 -242 l 210 -242 l 210 633 l 30 633 l 30 663 z"},"U":{"x_min":0,"x_max":719,"ha":719,"o":"m 21 608 l 23 626 q 46 625 93 625 q 176 625 256 629 l 261 613 q 216 607 200 600 q 184 592 177 578 q 162 551 162 349 q 162 280 164 227 q 166 174 172 145 q 188 71 250 47 q 313 23 367 23 q 398 23 441 32 q 484 41 522 63 q 561 86 574 126 q 601 204 601 433 q 601 501 597 536 q 593 570 583 586 q 574 601 560 604 q 546 608 515 608 l 513 625 q 535 628 562 628 q 667 628 703 627 l 703 607 q 669 605 657 600 q 645 594 642 579 q 639 563 638 514 q 637 422 634 350 q 631 279 626 233 q 622 187 614 150 q 606 114 594 92 q 572 50 524 27 q 477 4 429 -3 q 380 -10 341 -10 q 275 -10 219 10 q 164 30 128 76 q 93 122 93 194 q 93 211 94 290 q 95 369 95 407 q 95 542 82 587 q 79 598 71 601 q 62 604 21 608 z"},"o":{"x_min":0,"x_max":469,"ha":469,"o":"m 38 183 q 38 226 54 261 q 70 296 98 321 q 125 347 163 360 q 200 374 242 374 q 281 374 315 360 q 350 346 375 321 q 401 296 416 262 q 431 228 431 189 q 431 138 407 94 q 383 49 339 22 q 294 -5 237 -5 q 193 -5 147 14 q 101 33 70 75 q 38 118 38 183 z m 102 210 q 102 165 120 120 q 138 75 171 46 q 203 17 242 17 q 276 17 304 36 q 332 55 349 89 q 365 124 365 168 q 365 212 346 255 q 327 297 293 323 q 259 350 218 350 q 185 350 158 332 q 132 314 117 282 q 102 250 102 210 z"},"N":{"x_min":0,"x_max":771,"ha":771,"o":"m 16 613 l 16 633 q 60 630 72 629 q 84 628 101 629 l 143 630 q 172 593 212 551 q 251 510 301 462 q 350 415 356 408 l 644 135 q 648 196 648 320 l 648 414 q 648 489 644 527 q 641 565 630 583 q 620 602 604 608 q 587 614 548 620 l 553 634 q 560 635 577 635 q 592 635 607 634 q 623 634 643 632 q 655 631 668 631 q 682 631 690 631 l 752 632 l 753 615 q 724 611 711 602 q 698 592 693 571 q 684 531 680 414 q 677 297 677 192 q 677 150 677 112 q 678 74 679 44 q 680 14 682 -12 l 662 -11 q 628 62 459 219 l 276 390 q 267 397 231 431 q 195 464 140 515 l 134 216 q 131 124 138 87 q 144 50 166 38 q 187 26 247 14 q 247 4 245 -4 q 237 -4 198 -2 q 158 0 150 0 q 142 0 96 -2 q 88 -2 75 -3 q 62 -4 41 -6 q 34 -6 31 -3 q 28 0 28 6 q 28 13 30 15 q 33 16 41 17 q 62 20 72 25 q 82 30 87 45 q 93 61 96 94 q 99 126 99 178 l 102 411 q 103 488 99 525 q 96 562 78 585 q 60 608 16 613 z"},"+":{"x_min":0,"x_max":667,"ha":667,"o":"m 54 318 l 54 364 l 310 364 l 310 622 l 356 622 l 356 364 l 614 364 l 614 318 l 356 318 l 356 63 l 310 63 l 310 318 z"},"G":{"x_min":0,"x_max":677,"ha":677,"o":"m 664 310 l 664 292 q 645 286 640 282 q 635 279 631 269 q 628 263 628 252 q 627 241 626 220 q 626 198 626 139 q 626 96 628 77 q 630 59 634 52 q 638 44 648 36 l 643 25 q 635 24 575 12 q 535 5 499 0 q 462 -4 440 -6 q 418 -7 388 -7 q 298 -7 231 21 q 164 49 121 96 q 77 144 57 200 q 37 256 37 313 q 37 388 68 449 q 98 511 151 553 q 204 596 271 617 q 338 638 409 638 q 436 638 461 635 q 485 631 504 627 q 522 623 528 621 q 549 612 555 612 q 581 634 585 634 q 592 634 592 615 q 592 601 598 555 q 605 508 605 491 q 605 484 599 484 q 595 484 594 485 q 592 487 589 495 q 571 537 521 574 q 472 611 386 611 q 305 611 243 570 q 180 529 147 463 q 114 396 114 325 q 114 275 133 222 q 151 169 190 122 q 228 75 283 47 q 338 19 404 19 q 459 19 498 35 q 537 50 549 65 q 554 72 556 86 q 557 101 557 162 q 557 222 552 245 q 548 269 530 276 q 513 284 468 284 q 449 284 437 282 l 439 303 q 506 304 564 305 q 622 306 664 310 z"},"q":{"x_min":0,"x_max":469,"ha":469,"o":"m 263 -278 l 261 -261 q 291 -258 305 -251 q 319 -245 325 -229 q 332 -214 333 -185 q 335 -156 335 -91 l 335 20 l 280 3 q 236 -11 206 -11 q 161 -11 122 12 q 83 35 60 75 q 37 115 37 161 q 37 221 71 269 q 105 317 159 344 q 213 371 272 371 q 312 371 342 357 q 361 346 370 346 q 375 346 393 362 q 412 378 415 378 q 422 378 422 373 q 422 369 417 358 q 409 335 406 311 q 402 286 400 227 q 398 168 397 73 l 397 -92 q 397 -128 398 -160 q 398 -192 399 -210 q 400 -228 402 -237 q 403 -247 406 -249 q 408 -250 431 -253 q 455 -256 466 -258 l 466 -274 q 450 -273 418 -273 q 403 -273 335 -275 q 282 -278 263 -278 z m 339 94 l 341 181 q 341 291 337 297 q 330 311 296 327 q 262 343 231 343 q 195 343 166 323 q 137 303 120 266 q 102 229 102 180 q 102 133 122 96 q 142 59 176 40 q 209 20 246 20 q 277 20 296 28 q 314 35 337 49 q 339 71 339 94 z"},"d":{"x_min":0,"x_max":479,"ha":479,"o":"m 348 465 l 348 533 q 345 566 342 578 q 339 591 334 595 q 328 599 316 599 q 303 599 283 594 l 282 609 q 372 646 411 674 l 423 669 q 417 646 414 587 q 410 529 406 448 l 404 400 l 400 203 l 400 156 q 400 86 405 51 q 409 16 418 16 q 423 16 441 21 q 458 26 477 32 l 477 14 q 362 -26 353 -26 q 346 -26 342 -6 q 338 14 338 53 q 285 25 254 14 q 223 2 188 2 q 152 2 117 21 q 83 40 60 76 q 38 112 38 159 q 38 224 67 268 q 96 312 134 334 q 172 356 206 365 q 241 375 251 375 q 266 375 290 371 q 313 367 345 359 q 348 413 348 465 z m 338 126 l 341 293 q 341 304 324 313 q 307 322 287 327 q 267 332 242 335 q 218 339 214 339 q 183 339 155 323 q 126 306 110 278 q 93 250 93 215 q 93 161 112 122 q 132 83 165 62 q 199 42 239 42 q 267 42 290 52 q 313 62 338 77 q 337 81 338 96 q 338 112 338 126 z"},"1":{"x_min":0,"x_max":490,"ha":490,"o":"m 105 -5 l 104 16 q 139 16 164 25 q 189 34 197 61 q 203 82 207 149 q 210 215 212 286 q 213 356 213 420 q 213 533 208 553 q 204 573 178 578 q 153 583 107 583 l 106 602 q 176 604 222 607 q 269 611 298 616 q 327 621 364 629 l 369 610 l 335 602 q 306 596 297 581 q 289 566 285 534 q 280 485 278 438 q 276 390 275 347 q 275 304 275 239 q 275 57 291 38 q 298 31 317 26 q 335 21 388 16 l 387 -4 q 319 0 290 0 q 181 0 105 -5 z"},"5":{"x_min":0,"x_max":490,"ha":490,"o":"m 72 159 l 87 155 q 86 151 86 139 q 86 104 114 78 q 142 52 182 38 q 222 25 252 25 q 291 25 317 51 q 344 77 357 112 q 370 147 370 173 q 370 212 350 248 q 329 283 291 312 q 253 341 205 358 q 156 375 102 377 q 107 410 127 461 l 185 616 l 356 616 q 384 616 396 619 q 409 623 422 638 l 443 638 l 392 555 q 386 555 355 556 q 325 557 320 557 l 279 558 q 233 559 213 553 q 193 548 179 525 q 165 502 146 443 q 256 419 321 376 q 385 333 408 287 q 431 242 431 202 q 431 150 403 101 q 375 52 325 21 q 274 -9 209 -9 q 151 -9 114 11 q 77 30 44 62 q 59 96 72 159 z"}}}
